<mxfile host="app.diagrams.net" modified="2020-08-03T18:41:51.215Z" agent="5.0 (Windows NT 10.0; Win64; x64) AppleWebKit/537.36 (KHTML, like Gecko) Chrome/84.0.4147.105 Safari/537.36" etag="5Zs_9QoR42J8EpWtjqSO" version="13.5.9" type="github">
  <diagram id="R2lEEEUBdFMjLlhIrx00" name="Page-1">
    <mxGraphModel dx="1021" dy="579" grid="1" gridSize="10" guides="1" tooltips="1" connect="1" arrows="1" fold="1" page="1" pageScale="1" pageWidth="850" pageHeight="1100" math="0" shadow="0" extFonts="Permanent Marker^https://fonts.googleapis.com/css?family=Permanent+Marker">
      <root>
        <mxCell id="0" />
        <mxCell id="1" parent="0" />
        <mxCell id="C-vyLk0tnHw3VtMMgP7b-1" value="" style="edgeStyle=entityRelationEdgeStyle;endArrow=ERzeroToMany;startArrow=ERone;endFill=1;startFill=0;" parent="1" source="C-vyLk0tnHw3VtMMgP7b-24" target="C-vyLk0tnHw3VtMMgP7b-6" edge="1">
          <mxGeometry width="100" height="100" relative="1" as="geometry">
            <mxPoint x="340" y="720" as="sourcePoint" />
            <mxPoint x="440" y="620" as="targetPoint" />
          </mxGeometry>
        </mxCell>
        <mxCell id="C-vyLk0tnHw3VtMMgP7b-12" value="" style="edgeStyle=entityRelationEdgeStyle;endArrow=ERzeroToMany;startArrow=ERone;endFill=1;startFill=0;" parent="1" source="C-vyLk0tnHw3VtMMgP7b-3" target="C-vyLk0tnHw3VtMMgP7b-17" edge="1">
          <mxGeometry width="100" height="100" relative="1" as="geometry">
            <mxPoint x="400" y="180" as="sourcePoint" />
            <mxPoint x="460" y="205" as="targetPoint" />
          </mxGeometry>
        </mxCell>
        <mxCell id="C-vyLk0tnHw3VtMMgP7b-2" value="Pertanyaan" style="shape=table;startSize=30;container=1;collapsible=1;childLayout=tableLayout;fixedRows=1;rowLines=0;fontStyle=1;align=center;resizeLast=1;" parent="1" vertex="1">
          <mxGeometry x="450" y="120" width="250" height="180" as="geometry" />
        </mxCell>
        <mxCell id="C-vyLk0tnHw3VtMMgP7b-3" value="" style="shape=partialRectangle;collapsible=0;dropTarget=0;pointerEvents=0;fillColor=none;points=[[0,0.5],[1,0.5]];portConstraint=eastwest;top=0;left=0;right=0;bottom=1;" parent="C-vyLk0tnHw3VtMMgP7b-2" vertex="1">
          <mxGeometry y="30" width="250" height="30" as="geometry" />
        </mxCell>
        <mxCell id="C-vyLk0tnHw3VtMMgP7b-4" value="PK" style="shape=partialRectangle;overflow=hidden;connectable=0;fillColor=none;top=0;left=0;bottom=0;right=0;fontStyle=1;" parent="C-vyLk0tnHw3VtMMgP7b-3" vertex="1">
          <mxGeometry width="30" height="30" as="geometry" />
        </mxCell>
        <mxCell id="C-vyLk0tnHw3VtMMgP7b-5" value="pertanyaan_idÂ int NOT NULL " style="shape=partialRectangle;overflow=hidden;connectable=0;fillColor=none;top=0;left=0;bottom=0;right=0;align=left;spacingLeft=6;fontStyle=5;" parent="C-vyLk0tnHw3VtMMgP7b-3" vertex="1">
          <mxGeometry x="30" width="220" height="30" as="geometry" />
        </mxCell>
        <mxCell id="C-vyLk0tnHw3VtMMgP7b-6" value="" style="shape=partialRectangle;collapsible=0;dropTarget=0;pointerEvents=0;fillColor=none;points=[[0,0.5],[1,0.5]];portConstraint=eastwest;top=0;left=0;right=0;bottom=0;" parent="C-vyLk0tnHw3VtMMgP7b-2" vertex="1">
          <mxGeometry y="60" width="250" height="30" as="geometry" />
        </mxCell>
        <mxCell id="C-vyLk0tnHw3VtMMgP7b-7" value="" style="shape=partialRectangle;overflow=hidden;connectable=0;fillColor=none;top=0;left=0;bottom=0;right=0;" parent="C-vyLk0tnHw3VtMMgP7b-6" vertex="1">
          <mxGeometry width="30" height="30" as="geometry" />
        </mxCell>
        <mxCell id="C-vyLk0tnHw3VtMMgP7b-8" value="judul char(50) NOT NULL" style="shape=partialRectangle;overflow=hidden;connectable=0;fillColor=none;top=0;left=0;bottom=0;right=0;align=left;spacingLeft=6;" parent="C-vyLk0tnHw3VtMMgP7b-6" vertex="1">
          <mxGeometry x="30" width="220" height="30" as="geometry" />
        </mxCell>
        <mxCell id="C-vyLk0tnHw3VtMMgP7b-9" value="" style="shape=partialRectangle;collapsible=0;dropTarget=0;pointerEvents=0;fillColor=none;points=[[0,0.5],[1,0.5]];portConstraint=eastwest;top=0;left=0;right=0;bottom=0;" parent="C-vyLk0tnHw3VtMMgP7b-2" vertex="1">
          <mxGeometry y="90" width="250" height="30" as="geometry" />
        </mxCell>
        <mxCell id="C-vyLk0tnHw3VtMMgP7b-10" value="" style="shape=partialRectangle;overflow=hidden;connectable=0;fillColor=none;top=0;left=0;bottom=0;right=0;" parent="C-vyLk0tnHw3VtMMgP7b-9" vertex="1">
          <mxGeometry width="30" height="30" as="geometry" />
        </mxCell>
        <mxCell id="C-vyLk0tnHw3VtMMgP7b-11" value="isi char(255) NOT NULL" style="shape=partialRectangle;overflow=hidden;connectable=0;fillColor=none;top=0;left=0;bottom=0;right=0;align=left;spacingLeft=6;" parent="C-vyLk0tnHw3VtMMgP7b-9" vertex="1">
          <mxGeometry x="30" width="220" height="30" as="geometry" />
        </mxCell>
        <mxCell id="C-vyLk0tnHw3VtMMgP7b-23" value="User" style="shape=table;startSize=30;container=1;collapsible=1;childLayout=tableLayout;fixedRows=1;rowLines=0;fontStyle=1;align=center;resizeLast=1;" parent="1" vertex="1">
          <mxGeometry x="120" y="120" width="250" height="160" as="geometry" />
        </mxCell>
        <mxCell id="C-vyLk0tnHw3VtMMgP7b-24" value="" style="shape=partialRectangle;collapsible=0;dropTarget=0;pointerEvents=0;fillColor=none;points=[[0,0.5],[1,0.5]];portConstraint=eastwest;top=0;left=0;right=0;bottom=1;" parent="C-vyLk0tnHw3VtMMgP7b-23" vertex="1">
          <mxGeometry y="30" width="250" height="30" as="geometry" />
        </mxCell>
        <mxCell id="C-vyLk0tnHw3VtMMgP7b-25" value="PK" style="shape=partialRectangle;overflow=hidden;connectable=0;fillColor=none;top=0;left=0;bottom=0;right=0;fontStyle=1;" parent="C-vyLk0tnHw3VtMMgP7b-24" vertex="1">
          <mxGeometry width="30" height="30" as="geometry" />
        </mxCell>
        <mxCell id="C-vyLk0tnHw3VtMMgP7b-26" value="user_id int NOT NULL " style="shape=partialRectangle;overflow=hidden;connectable=0;fillColor=none;top=0;left=0;bottom=0;right=0;align=left;spacingLeft=6;fontStyle=5;" parent="C-vyLk0tnHw3VtMMgP7b-24" vertex="1">
          <mxGeometry x="30" width="220" height="30" as="geometry" />
        </mxCell>
        <mxCell id="C-vyLk0tnHw3VtMMgP7b-27" value="" style="shape=partialRectangle;collapsible=0;dropTarget=0;pointerEvents=0;fillColor=none;points=[[0,0.5],[1,0.5]];portConstraint=eastwest;top=0;left=0;right=0;bottom=0;" parent="C-vyLk0tnHw3VtMMgP7b-23" vertex="1">
          <mxGeometry y="60" width="250" height="30" as="geometry" />
        </mxCell>
        <mxCell id="C-vyLk0tnHw3VtMMgP7b-28" value="" style="shape=partialRectangle;overflow=hidden;connectable=0;fillColor=none;top=0;left=0;bottom=0;right=0;" parent="C-vyLk0tnHw3VtMMgP7b-27" vertex="1">
          <mxGeometry width="30" height="30" as="geometry" />
        </mxCell>
        <mxCell id="C-vyLk0tnHw3VtMMgP7b-29" value="nama_lengkap char(50) NOT NULL" style="shape=partialRectangle;overflow=hidden;connectable=0;fillColor=none;top=0;left=0;bottom=0;right=0;align=left;spacingLeft=6;" parent="C-vyLk0tnHw3VtMMgP7b-27" vertex="1">
          <mxGeometry x="30" width="220" height="30" as="geometry" />
        </mxCell>
        <mxCell id="_b5BClZJfC4NfJ-R23Pq-8" value="" style="shape=partialRectangle;overflow=hidden;connectable=0;fillColor=none;top=0;left=0;bottom=0;right=0;" vertex="1" parent="1">
          <mxGeometry x="120" y="220" width="30" height="30" as="geometry" />
        </mxCell>
        <mxCell id="_b5BClZJfC4NfJ-R23Pq-9" value="alamat_email char(50) NOT NULL" style="shape=partialRectangle;overflow=hidden;connectable=0;fillColor=none;top=0;left=0;bottom=0;right=0;align=left;spacingLeft=6;" vertex="1" parent="1">
          <mxGeometry x="150" y="210" width="220" height="30" as="geometry" />
        </mxCell>
        <mxCell id="_b5BClZJfC4NfJ-R23Pq-10" value="photo img NOT NULL" style="shape=partialRectangle;overflow=hidden;connectable=0;fillColor=none;top=0;left=0;bottom=0;right=0;align=left;spacingLeft=6;" vertex="1" parent="1">
          <mxGeometry x="150" y="240" width="220" height="30" as="geometry" />
        </mxCell>
        <mxCell id="_b5BClZJfC4NfJ-R23Pq-13" style="edgeStyle=elbowEdgeStyle;rounded=0;orthogonalLoop=1;jettySize=auto;html=1;exitX=1;exitY=0.5;exitDx=0;exitDy=0;entryX=0;entryY=0.967;entryDx=0;entryDy=0;entryPerimeter=0;endArrow=ERzeroToMany;endFill=1;" edge="1" parent="1" source="C-vyLk0tnHw3VtMMgP7b-24" target="C-vyLk0tnHw3VtMMgP7b-14">
          <mxGeometry relative="1" as="geometry">
            <Array as="points">
              <mxPoint x="390" y="240" />
              <mxPoint x="400" y="190" />
            </Array>
          </mxGeometry>
        </mxCell>
        <mxCell id="_b5BClZJfC4NfJ-R23Pq-14" style="rounded=0;orthogonalLoop=1;jettySize=auto;html=1;exitX=1;exitY=0.5;exitDx=0;exitDy=0;entryX=0.004;entryY=0.8;entryDx=0;entryDy=0;entryPerimeter=0;endArrow=ERzeroToMany;endFill=1;" edge="1" parent="1" source="C-vyLk0tnHw3VtMMgP7b-6" target="_b5BClZJfC4NfJ-R23Pq-2">
          <mxGeometry relative="1" as="geometry" />
        </mxCell>
        <mxCell id="_b5BClZJfC4NfJ-R23Pq-15" style="edgeStyle=none;rounded=0;orthogonalLoop=1;jettySize=auto;html=1;exitX=1;exitY=0.5;exitDx=0;exitDy=0;entryX=0;entryY=0.5;entryDx=0;entryDy=0;endArrow=ERzeroToMany;endFill=1;" edge="1" parent="1" source="C-vyLk0tnHw3VtMMgP7b-14" target="_b5BClZJfC4NfJ-R23Pq-5">
          <mxGeometry relative="1" as="geometry" />
        </mxCell>
        <mxCell id="C-vyLk0tnHw3VtMMgP7b-13" value="Jawaban" style="shape=table;startSize=30;container=1;collapsible=1;childLayout=tableLayout;fixedRows=1;rowLines=0;fontStyle=1;align=center;resizeLast=1;" parent="1" vertex="1">
          <mxGeometry x="450" y="330" width="250" height="160" as="geometry" />
        </mxCell>
        <mxCell id="C-vyLk0tnHw3VtMMgP7b-14" value="" style="shape=partialRectangle;collapsible=0;dropTarget=0;pointerEvents=0;fillColor=none;points=[[0,0.5],[1,0.5]];portConstraint=eastwest;top=0;left=0;right=0;bottom=1;" parent="C-vyLk0tnHw3VtMMgP7b-13" vertex="1">
          <mxGeometry y="30" width="250" height="30" as="geometry" />
        </mxCell>
        <mxCell id="C-vyLk0tnHw3VtMMgP7b-15" value="PK" style="shape=partialRectangle;overflow=hidden;connectable=0;fillColor=none;top=0;left=0;bottom=0;right=0;fontStyle=1;" parent="C-vyLk0tnHw3VtMMgP7b-14" vertex="1">
          <mxGeometry width="30" height="30" as="geometry" />
        </mxCell>
        <mxCell id="C-vyLk0tnHw3VtMMgP7b-16" value="jawaban_id int NOT NULL" style="shape=partialRectangle;overflow=hidden;connectable=0;fillColor=none;top=0;left=0;bottom=0;right=0;align=left;spacingLeft=6;fontStyle=5;" parent="C-vyLk0tnHw3VtMMgP7b-14" vertex="1">
          <mxGeometry x="30" width="220" height="30" as="geometry" />
        </mxCell>
        <mxCell id="C-vyLk0tnHw3VtMMgP7b-17" value="" style="shape=partialRectangle;collapsible=0;dropTarget=0;pointerEvents=0;fillColor=none;points=[[0,0.5],[1,0.5]];portConstraint=eastwest;top=0;left=0;right=0;bottom=0;" parent="C-vyLk0tnHw3VtMMgP7b-13" vertex="1">
          <mxGeometry y="60" width="250" height="30" as="geometry" />
        </mxCell>
        <mxCell id="C-vyLk0tnHw3VtMMgP7b-18" value="" style="shape=partialRectangle;overflow=hidden;connectable=0;fillColor=none;top=0;left=0;bottom=0;right=0;" parent="C-vyLk0tnHw3VtMMgP7b-17" vertex="1">
          <mxGeometry width="30" height="30" as="geometry" />
        </mxCell>
        <mxCell id="C-vyLk0tnHw3VtMMgP7b-19" value="isi char(255) NOT NULL" style="shape=partialRectangle;overflow=hidden;connectable=0;fillColor=none;top=0;left=0;bottom=0;right=0;align=left;spacingLeft=6;" parent="C-vyLk0tnHw3VtMMgP7b-17" vertex="1">
          <mxGeometry x="30" width="220" height="30" as="geometry" />
        </mxCell>
        <mxCell id="C-vyLk0tnHw3VtMMgP7b-20" value="" style="shape=partialRectangle;collapsible=0;dropTarget=0;pointerEvents=0;fillColor=none;points=[[0,0.5],[1,0.5]];portConstraint=eastwest;top=0;left=0;right=0;bottom=0;" parent="C-vyLk0tnHw3VtMMgP7b-13" vertex="1">
          <mxGeometry y="90" width="250" height="30" as="geometry" />
        </mxCell>
        <mxCell id="C-vyLk0tnHw3VtMMgP7b-21" value="" style="shape=partialRectangle;overflow=hidden;connectable=0;fillColor=none;top=0;left=0;bottom=0;right=0;" parent="C-vyLk0tnHw3VtMMgP7b-20" vertex="1">
          <mxGeometry width="30" height="30" as="geometry" />
        </mxCell>
        <mxCell id="C-vyLk0tnHw3VtMMgP7b-22" value="tanggal_dibuat date" style="shape=partialRectangle;overflow=hidden;connectable=0;fillColor=none;top=0;left=0;bottom=0;right=0;align=left;spacingLeft=6;" parent="C-vyLk0tnHw3VtMMgP7b-20" vertex="1">
          <mxGeometry x="30" width="220" height="30" as="geometry" />
        </mxCell>
        <mxCell id="_b5BClZJfC4NfJ-R23Pq-17" value="" style="shape=partialRectangle;collapsible=0;dropTarget=0;pointerEvents=0;fillColor=none;points=[[0,0.5],[1,0.5]];portConstraint=eastwest;top=0;left=0;right=0;bottom=0;" vertex="1" parent="1">
          <mxGeometry x="450" y="240" width="250" height="30" as="geometry" />
        </mxCell>
        <mxCell id="_b5BClZJfC4NfJ-R23Pq-18" value="" style="shape=partialRectangle;overflow=hidden;connectable=0;fillColor=none;top=0;left=0;bottom=0;right=0;" vertex="1" parent="_b5BClZJfC4NfJ-R23Pq-17">
          <mxGeometry width="30" height="30" as="geometry" />
        </mxCell>
        <mxCell id="_b5BClZJfC4NfJ-R23Pq-19" value="tanggal_dibuat date" style="shape=partialRectangle;overflow=hidden;connectable=0;fillColor=none;top=0;left=0;bottom=0;right=0;align=left;spacingLeft=6;" vertex="1" parent="_b5BClZJfC4NfJ-R23Pq-17">
          <mxGeometry x="30" width="220" height="30" as="geometry" />
        </mxCell>
        <mxCell id="_b5BClZJfC4NfJ-R23Pq-20" value="" style="shape=partialRectangle;collapsible=0;dropTarget=0;pointerEvents=0;fillColor=none;points=[[0,0.5],[1,0.5]];portConstraint=eastwest;top=0;left=0;right=0;bottom=0;" vertex="1" parent="1">
          <mxGeometry x="450" y="270" width="250" height="30" as="geometry" />
        </mxCell>
        <mxCell id="_b5BClZJfC4NfJ-R23Pq-21" value="" style="shape=partialRectangle;overflow=hidden;connectable=0;fillColor=none;top=0;left=0;bottom=0;right=0;" vertex="1" parent="_b5BClZJfC4NfJ-R23Pq-20">
          <mxGeometry width="30" height="30" as="geometry" />
        </mxCell>
        <mxCell id="_b5BClZJfC4NfJ-R23Pq-22" value="tanggal_diperbaharui date" style="shape=partialRectangle;overflow=hidden;connectable=0;fillColor=none;top=0;left=0;bottom=0;right=0;align=left;spacingLeft=6;" vertex="1" parent="_b5BClZJfC4NfJ-R23Pq-20">
          <mxGeometry x="30" width="220" height="30" as="geometry" />
        </mxCell>
        <mxCell id="_b5BClZJfC4NfJ-R23Pq-23" value="tanggal_diperbaharui date" style="shape=partialRectangle;overflow=hidden;connectable=0;fillColor=none;top=0;left=0;bottom=0;right=0;align=left;spacingLeft=6;" vertex="1" parent="1">
          <mxGeometry x="480" y="450" width="220" height="30" as="geometry" />
        </mxCell>
        <mxCell id="_b5BClZJfC4NfJ-R23Pq-24" value="isi char(255) NOT NULL" style="shape=partialRectangle;overflow=hidden;connectable=0;fillColor=none;top=0;left=0;bottom=0;right=0;align=left;spacingLeft=6;" vertex="1" parent="1">
          <mxGeometry x="790" y="290" width="220" height="30" as="geometry" />
        </mxCell>
        <mxCell id="_b5BClZJfC4NfJ-R23Pq-1" value="Komentar" style="shape=table;startSize=30;container=1;collapsible=1;childLayout=tableLayout;fixedRows=1;rowLines=0;fontStyle=1;align=center;resizeLast=1;" vertex="1" parent="1">
          <mxGeometry x="760" y="200" width="250" height="160" as="geometry" />
        </mxCell>
        <mxCell id="_b5BClZJfC4NfJ-R23Pq-2" value="" style="shape=partialRectangle;collapsible=0;dropTarget=0;pointerEvents=0;fillColor=none;points=[[0,0.5],[1,0.5]];portConstraint=eastwest;top=0;left=0;right=0;bottom=1;" vertex="1" parent="_b5BClZJfC4NfJ-R23Pq-1">
          <mxGeometry y="30" width="250" height="30" as="geometry" />
        </mxCell>
        <mxCell id="_b5BClZJfC4NfJ-R23Pq-3" value="" style="shape=partialRectangle;overflow=hidden;connectable=0;fillColor=none;top=0;left=0;bottom=0;right=0;fontStyle=1;" vertex="1" parent="_b5BClZJfC4NfJ-R23Pq-2">
          <mxGeometry width="30" height="30" as="geometry" />
        </mxCell>
        <mxCell id="_b5BClZJfC4NfJ-R23Pq-4" value="komentar_id int NOT NULL" style="shape=partialRectangle;overflow=hidden;connectable=0;fillColor=none;top=0;left=0;bottom=0;right=0;align=left;spacingLeft=6;fontStyle=5;" vertex="1" parent="_b5BClZJfC4NfJ-R23Pq-2">
          <mxGeometry x="30" width="220" height="30" as="geometry" />
        </mxCell>
        <mxCell id="_b5BClZJfC4NfJ-R23Pq-5" value="" style="shape=partialRectangle;collapsible=0;dropTarget=0;pointerEvents=0;fillColor=none;points=[[0,0.5],[1,0.5]];portConstraint=eastwest;top=0;left=0;right=0;bottom=0;" vertex="1" parent="_b5BClZJfC4NfJ-R23Pq-1">
          <mxGeometry y="60" width="250" height="30" as="geometry" />
        </mxCell>
        <mxCell id="_b5BClZJfC4NfJ-R23Pq-6" value="FK" style="shape=partialRectangle;overflow=hidden;connectable=0;fillColor=none;top=0;left=0;bottom=0;right=0;" vertex="1" parent="_b5BClZJfC4NfJ-R23Pq-5">
          <mxGeometry width="30" height="30" as="geometry" />
        </mxCell>
        <mxCell id="_b5BClZJfC4NfJ-R23Pq-7" value="user_id int NOT NULL" style="shape=partialRectangle;overflow=hidden;connectable=0;fillColor=none;top=0;left=0;bottom=0;right=0;align=left;spacingLeft=6;" vertex="1" parent="_b5BClZJfC4NfJ-R23Pq-5">
          <mxGeometry x="30" width="220" height="30" as="geometry" />
        </mxCell>
        <mxCell id="_b5BClZJfC4NfJ-R23Pq-25" value="tanggal_dibuat date" style="shape=partialRectangle;overflow=hidden;connectable=0;fillColor=none;top=0;left=0;bottom=0;right=0;align=left;spacingLeft=6;" vertex="1" parent="1">
          <mxGeometry x="790" y="320" width="220" height="30" as="geometry" />
        </mxCell>
        <mxCell id="_b5BClZJfC4NfJ-R23Pq-77" style="edgeStyle=none;rounded=0;orthogonalLoop=1;jettySize=auto;html=1;exitX=0;exitY=0.5;exitDx=0;exitDy=0;entryX=1;entryY=0.5;entryDx=0;entryDy=0;startArrow=none;startFill=0;endArrow=none;endFill=0;" edge="1" parent="1" source="_b5BClZJfC4NfJ-R23Pq-26" target="_b5BClZJfC4NfJ-R23Pq-76">
          <mxGeometry relative="1" as="geometry" />
        </mxCell>
        <mxCell id="_b5BClZJfC4NfJ-R23Pq-105" style="edgeStyle=none;rounded=0;orthogonalLoop=1;jettySize=auto;html=1;exitX=0.5;exitY=1;exitDx=0;exitDy=0;entryX=0.5;entryY=0;entryDx=0;entryDy=0;startArrow=ERone;startFill=0;endArrow=none;endFill=0;" edge="1" parent="1" source="_b5BClZJfC4NfJ-R23Pq-26" target="_b5BClZJfC4NfJ-R23Pq-104">
          <mxGeometry relative="1" as="geometry">
            <Array as="points">
              <mxPoint x="580" y="700" />
              <mxPoint x="473" y="700" />
            </Array>
          </mxGeometry>
        </mxCell>
        <mxCell id="_b5BClZJfC4NfJ-R23Pq-128" style="edgeStyle=none;rounded=0;orthogonalLoop=1;jettySize=auto;html=1;entryX=0;entryY=0.5;entryDx=0;entryDy=0;startArrow=none;startFill=0;endArrow=none;endFill=0;" edge="1" parent="1" source="_b5BClZJfC4NfJ-R23Pq-26" target="_b5BClZJfC4NfJ-R23Pq-127">
          <mxGeometry relative="1" as="geometry" />
        </mxCell>
        <mxCell id="_b5BClZJfC4NfJ-R23Pq-131" style="edgeStyle=none;rounded=0;orthogonalLoop=1;jettySize=auto;html=1;exitX=0.75;exitY=1;exitDx=0;exitDy=0;entryX=0.5;entryY=0;entryDx=0;entryDy=0;startArrow=none;startFill=0;endArrow=none;endFill=0;" edge="1" parent="1" source="_b5BClZJfC4NfJ-R23Pq-26" target="_b5BClZJfC4NfJ-R23Pq-130">
          <mxGeometry relative="1" as="geometry">
            <Array as="points">
              <mxPoint x="600" y="700" />
              <mxPoint x="640" y="700" />
            </Array>
          </mxGeometry>
        </mxCell>
        <mxCell id="_b5BClZJfC4NfJ-R23Pq-26" value="USER" style="rounded=0;whiteSpace=wrap;html=1;" vertex="1" parent="1">
          <mxGeometry x="540" y="640" width="80" height="40" as="geometry" />
        </mxCell>
        <mxCell id="_b5BClZJfC4NfJ-R23Pq-62" style="edgeStyle=none;rounded=0;orthogonalLoop=1;jettySize=auto;html=1;exitX=0.5;exitY=1;exitDx=0;exitDy=0;entryX=0.5;entryY=0;entryDx=0;entryDy=0;endArrow=none;endFill=0;startArrow=ERone;startFill=0;" edge="1" parent="1" source="_b5BClZJfC4NfJ-R23Pq-28" target="_b5BClZJfC4NfJ-R23Pq-58">
          <mxGeometry relative="1" as="geometry" />
        </mxCell>
        <mxCell id="_b5BClZJfC4NfJ-R23Pq-64" style="edgeStyle=none;rounded=0;orthogonalLoop=1;jettySize=auto;html=1;exitX=1;exitY=0.5;exitDx=0;exitDy=0;startArrow=ERone;startFill=0;endArrow=none;endFill=0;entryX=0;entryY=0.5;entryDx=0;entryDy=0;" edge="1" parent="1" source="_b5BClZJfC4NfJ-R23Pq-28" target="_b5BClZJfC4NfJ-R23Pq-60">
          <mxGeometry relative="1" as="geometry">
            <mxPoint x="1060" y="540" as="targetPoint" />
            <Array as="points" />
          </mxGeometry>
        </mxCell>
        <mxCell id="_b5BClZJfC4NfJ-R23Pq-28" value="PERTANYAAN" style="rounded=0;whiteSpace=wrap;html=1;" vertex="1" parent="1">
          <mxGeometry x="870" y="555" width="110" height="40" as="geometry" />
        </mxCell>
        <mxCell id="_b5BClZJfC4NfJ-R23Pq-68" style="edgeStyle=none;rounded=0;orthogonalLoop=1;jettySize=auto;html=1;exitX=1;exitY=0.5;exitDx=0;exitDy=0;entryX=0;entryY=0.5;entryDx=0;entryDy=0;startArrow=ERone;startFill=0;endArrow=none;endFill=0;" edge="1" parent="1" source="_b5BClZJfC4NfJ-R23Pq-29" target="_b5BClZJfC4NfJ-R23Pq-61">
          <mxGeometry relative="1" as="geometry" />
        </mxCell>
        <mxCell id="_b5BClZJfC4NfJ-R23Pq-110" value="" style="edgeStyle=none;rounded=0;orthogonalLoop=1;jettySize=auto;html=1;startArrow=ERone;startFill=0;endArrow=ERzeroToMany;endFill=1;" edge="1" parent="1" source="_b5BClZJfC4NfJ-R23Pq-29" target="_b5BClZJfC4NfJ-R23Pq-99">
          <mxGeometry relative="1" as="geometry" />
        </mxCell>
        <mxCell id="_b5BClZJfC4NfJ-R23Pq-29" value="JAWABAN" style="rounded=0;whiteSpace=wrap;html=1;" vertex="1" parent="1">
          <mxGeometry x="525" y="840" width="110" height="40" as="geometry" />
        </mxCell>
        <mxCell id="_b5BClZJfC4NfJ-R23Pq-30" value="KOMENTAR" style="rounded=0;whiteSpace=wrap;html=1;" vertex="1" parent="1">
          <mxGeometry x="1030" y="680" width="110" height="40" as="geometry" />
        </mxCell>
        <mxCell id="_b5BClZJfC4NfJ-R23Pq-40" style="edgeStyle=none;rounded=0;orthogonalLoop=1;jettySize=auto;html=1;exitX=0;exitY=0.5;exitDx=0;exitDy=0;entryX=0.5;entryY=0;entryDx=0;entryDy=0;endArrow=diamond;endFill=1;" edge="1" parent="1" source="_b5BClZJfC4NfJ-R23Pq-34" target="_b5BClZJfC4NfJ-R23Pq-26">
          <mxGeometry relative="1" as="geometry">
            <Array as="points">
              <mxPoint x="580" y="570" />
            </Array>
          </mxGeometry>
        </mxCell>
        <mxCell id="_b5BClZJfC4NfJ-R23Pq-42" style="edgeStyle=none;rounded=0;orthogonalLoop=1;jettySize=auto;html=1;exitX=1;exitY=0.5;exitDx=0;exitDy=0;endArrow=ERzeroToMany;endFill=1;" edge="1" parent="1" source="_b5BClZJfC4NfJ-R23Pq-34">
          <mxGeometry relative="1" as="geometry">
            <mxPoint x="870" y="570" as="targetPoint" />
            <Array as="points">
              <mxPoint x="810" y="570" />
            </Array>
          </mxGeometry>
        </mxCell>
        <mxCell id="_b5BClZJfC4NfJ-R23Pq-34" value="Membuat" style="rhombus;whiteSpace=wrap;html=1;" vertex="1" parent="1">
          <mxGeometry x="700" y="545" width="80" height="50" as="geometry" />
        </mxCell>
        <mxCell id="_b5BClZJfC4NfJ-R23Pq-73" style="edgeStyle=none;rounded=0;orthogonalLoop=1;jettySize=auto;html=1;exitX=1;exitY=0.5;exitDx=0;exitDy=0;entryX=0;entryY=0.5;entryDx=0;entryDy=0;startArrow=none;startFill=0;endArrow=none;endFill=0;" edge="1" parent="1" source="_b5BClZJfC4NfJ-R23Pq-47" target="_b5BClZJfC4NfJ-R23Pq-71">
          <mxGeometry relative="1" as="geometry" />
        </mxCell>
        <mxCell id="_b5BClZJfC4NfJ-R23Pq-47" value="user_id" style="ellipse;whiteSpace=wrap;html=1;" vertex="1" parent="1">
          <mxGeometry x="160" y="735" width="65" height="30" as="geometry" />
        </mxCell>
        <mxCell id="_b5BClZJfC4NfJ-R23Pq-72" style="edgeStyle=none;rounded=0;orthogonalLoop=1;jettySize=auto;html=1;exitX=1;exitY=1;exitDx=0;exitDy=0;entryX=0.25;entryY=0;entryDx=0;entryDy=0;startArrow=none;startFill=0;endArrow=none;endFill=0;" edge="1" parent="1" source="_b5BClZJfC4NfJ-R23Pq-48" target="_b5BClZJfC4NfJ-R23Pq-71">
          <mxGeometry relative="1" as="geometry" />
        </mxCell>
        <mxCell id="_b5BClZJfC4NfJ-R23Pq-48" value="nama_lengkap" style="ellipse;whiteSpace=wrap;html=1;" vertex="1" parent="1">
          <mxGeometry x="185" y="690" width="95" height="30" as="geometry" />
        </mxCell>
        <mxCell id="_b5BClZJfC4NfJ-R23Pq-75" style="edgeStyle=none;rounded=0;orthogonalLoop=1;jettySize=auto;html=1;exitX=0.5;exitY=0;exitDx=0;exitDy=0;entryX=0.25;entryY=1;entryDx=0;entryDy=0;startArrow=none;startFill=0;endArrow=none;endFill=0;" edge="1" parent="1" source="_b5BClZJfC4NfJ-R23Pq-49" target="_b5BClZJfC4NfJ-R23Pq-71">
          <mxGeometry relative="1" as="geometry" />
        </mxCell>
        <mxCell id="_b5BClZJfC4NfJ-R23Pq-49" value="alamat_email" style="ellipse;whiteSpace=wrap;html=1;" vertex="1" parent="1">
          <mxGeometry x="247.5" y="820" width="95" height="30" as="geometry" />
        </mxCell>
        <mxCell id="_b5BClZJfC4NfJ-R23Pq-74" style="edgeStyle=none;rounded=0;orthogonalLoop=1;jettySize=auto;html=1;exitX=1;exitY=0.5;exitDx=0;exitDy=0;entryX=0;entryY=0.75;entryDx=0;entryDy=0;startArrow=none;startFill=0;endArrow=none;endFill=0;" edge="1" parent="1" source="_b5BClZJfC4NfJ-R23Pq-50" target="_b5BClZJfC4NfJ-R23Pq-71">
          <mxGeometry relative="1" as="geometry" />
        </mxCell>
        <mxCell id="_b5BClZJfC4NfJ-R23Pq-50" value="photo" style="ellipse;whiteSpace=wrap;html=1;" vertex="1" parent="1">
          <mxGeometry x="170" y="790" width="65" height="30" as="geometry" />
        </mxCell>
        <mxCell id="_b5BClZJfC4NfJ-R23Pq-63" style="edgeStyle=none;rounded=0;orthogonalLoop=1;jettySize=auto;html=1;exitX=0;exitY=0.5;exitDx=0;exitDy=0;endArrow=ERzeroToMany;endFill=1;entryX=0.75;entryY=0;entryDx=0;entryDy=0;" edge="1" parent="1" source="_b5BClZJfC4NfJ-R23Pq-58" target="_b5BClZJfC4NfJ-R23Pq-29">
          <mxGeometry relative="1" as="geometry">
            <Array as="points">
              <mxPoint x="860" y="710" />
              <mxPoint x="860" y="820" />
              <mxPoint x="610" y="820" />
            </Array>
          </mxGeometry>
        </mxCell>
        <mxCell id="_b5BClZJfC4NfJ-R23Pq-58" value="Memiliki" style="rhombus;whiteSpace=wrap;html=1;" vertex="1" parent="1">
          <mxGeometry x="885" y="685" width="80" height="50" as="geometry" />
        </mxCell>
        <mxCell id="_b5BClZJfC4NfJ-R23Pq-67" style="edgeStyle=none;rounded=0;orthogonalLoop=1;jettySize=auto;html=1;exitX=0.5;exitY=1;exitDx=0;exitDy=0;startArrow=ERone;startFill=0;endArrow=ERzeroToMany;endFill=1;entryX=0.5;entryY=0;entryDx=0;entryDy=0;" edge="1" parent="1" source="_b5BClZJfC4NfJ-R23Pq-60" target="_b5BClZJfC4NfJ-R23Pq-30">
          <mxGeometry relative="1" as="geometry">
            <Array as="points" />
          </mxGeometry>
        </mxCell>
        <mxCell id="_b5BClZJfC4NfJ-R23Pq-60" value="Memiliki" style="rhombus;whiteSpace=wrap;html=1;" vertex="1" parent="1">
          <mxGeometry x="1045" y="550" width="80" height="50" as="geometry" />
        </mxCell>
        <mxCell id="_b5BClZJfC4NfJ-R23Pq-69" style="edgeStyle=none;rounded=0;orthogonalLoop=1;jettySize=auto;html=1;exitX=1;exitY=0.5;exitDx=0;exitDy=0;entryX=0.5;entryY=1;entryDx=0;entryDy=0;startArrow=ERone;startFill=0;endArrow=ERzeroToMany;endFill=1;" edge="1" parent="1" source="_b5BClZJfC4NfJ-R23Pq-61" target="_b5BClZJfC4NfJ-R23Pq-30">
          <mxGeometry relative="1" as="geometry">
            <Array as="points">
              <mxPoint x="1085" y="855" />
            </Array>
          </mxGeometry>
        </mxCell>
        <mxCell id="_b5BClZJfC4NfJ-R23Pq-61" value="Memiliki" style="rhombus;whiteSpace=wrap;html=1;" vertex="1" parent="1">
          <mxGeometry x="980" y="830" width="80" height="50" as="geometry" />
        </mxCell>
        <mxCell id="_b5BClZJfC4NfJ-R23Pq-65" style="edgeStyle=none;rounded=0;orthogonalLoop=1;jettySize=auto;html=1;exitX=0;exitY=0.5;exitDx=0;exitDy=0;entryX=0;entryY=0;entryDx=0;entryDy=0;startArrow=ERone;startFill=0;endArrow=none;endFill=0;" edge="1" parent="1" source="_b5BClZJfC4NfJ-R23Pq-60" target="_b5BClZJfC4NfJ-R23Pq-60">
          <mxGeometry relative="1" as="geometry" />
        </mxCell>
        <mxCell id="_b5BClZJfC4NfJ-R23Pq-66" style="edgeStyle=none;rounded=0;orthogonalLoop=1;jettySize=auto;html=1;exitX=0;exitY=0.5;exitDx=0;exitDy=0;entryX=0;entryY=0;entryDx=0;entryDy=0;startArrow=ERone;startFill=0;endArrow=none;endFill=0;" edge="1" parent="1" source="_b5BClZJfC4NfJ-R23Pq-60" target="_b5BClZJfC4NfJ-R23Pq-60">
          <mxGeometry relative="1" as="geometry" />
        </mxCell>
        <mxCell id="_b5BClZJfC4NfJ-R23Pq-71" value="PROFILE" style="rounded=0;whiteSpace=wrap;html=1;" vertex="1" parent="1">
          <mxGeometry x="275" y="750" width="110" height="40" as="geometry" />
        </mxCell>
        <mxCell id="_b5BClZJfC4NfJ-R23Pq-78" style="edgeStyle=none;rounded=0;orthogonalLoop=1;jettySize=auto;html=1;exitX=0.5;exitY=1;exitDx=0;exitDy=0;startArrow=none;startFill=0;endArrow=none;endFill=0;" edge="1" parent="1" source="_b5BClZJfC4NfJ-R23Pq-76" target="_b5BClZJfC4NfJ-R23Pq-71">
          <mxGeometry relative="1" as="geometry" />
        </mxCell>
        <mxCell id="_b5BClZJfC4NfJ-R23Pq-76" value="Memperbaharui" style="rhombus;whiteSpace=wrap;html=1;" vertex="1" parent="1">
          <mxGeometry x="267.5" y="635" width="125" height="50" as="geometry" />
        </mxCell>
        <mxCell id="_b5BClZJfC4NfJ-R23Pq-90" style="edgeStyle=none;rounded=0;orthogonalLoop=1;jettySize=auto;html=1;exitX=1;exitY=0.5;exitDx=0;exitDy=0;entryX=0;entryY=0;entryDx=0;entryDy=0;startArrow=none;startFill=0;endArrow=none;endFill=0;" edge="1" parent="1" source="_b5BClZJfC4NfJ-R23Pq-80" target="_b5BClZJfC4NfJ-R23Pq-28">
          <mxGeometry relative="1" as="geometry" />
        </mxCell>
        <mxCell id="_b5BClZJfC4NfJ-R23Pq-80" value="judul" style="ellipse;whiteSpace=wrap;html=1;" vertex="1" parent="1">
          <mxGeometry x="782.5" y="485" width="65" height="30" as="geometry" />
        </mxCell>
        <mxCell id="_b5BClZJfC4NfJ-R23Pq-87" style="edgeStyle=none;rounded=0;orthogonalLoop=1;jettySize=auto;html=1;exitX=0.5;exitY=1;exitDx=0;exitDy=0;entryX=0.25;entryY=0;entryDx=0;entryDy=0;startArrow=none;startFill=0;endArrow=none;endFill=0;" edge="1" parent="1" source="_b5BClZJfC4NfJ-R23Pq-81" target="_b5BClZJfC4NfJ-R23Pq-28">
          <mxGeometry relative="1" as="geometry" />
        </mxCell>
        <mxCell id="_b5BClZJfC4NfJ-R23Pq-81" value="pertanyaan_id" style="ellipse;whiteSpace=wrap;html=1;" vertex="1" parent="1">
          <mxGeometry x="820" y="450" width="95" height="30" as="geometry" />
        </mxCell>
        <mxCell id="_b5BClZJfC4NfJ-R23Pq-92" style="edgeStyle=none;rounded=0;orthogonalLoop=1;jettySize=auto;html=1;exitX=1;exitY=0;exitDx=0;exitDy=0;startArrow=none;startFill=0;endArrow=none;endFill=0;entryX=0.83;entryY=0.003;entryDx=0;entryDy=0;entryPerimeter=0;" edge="1" parent="1" source="_b5BClZJfC4NfJ-R23Pq-83" target="_b5BClZJfC4NfJ-R23Pq-28">
          <mxGeometry relative="1" as="geometry" />
        </mxCell>
        <mxCell id="_b5BClZJfC4NfJ-R23Pq-83" value="isi" style="ellipse;whiteSpace=wrap;html=1;" vertex="1" parent="1">
          <mxGeometry x="990" y="470" width="50" height="30" as="geometry" />
        </mxCell>
        <mxCell id="_b5BClZJfC4NfJ-R23Pq-88" style="edgeStyle=none;rounded=0;orthogonalLoop=1;jettySize=auto;html=1;exitX=0.5;exitY=1;exitDx=0;exitDy=0;entryX=0.381;entryY=0.01;entryDx=0;entryDy=0;entryPerimeter=0;startArrow=none;startFill=0;endArrow=none;endFill=0;" edge="1" parent="1" source="_b5BClZJfC4NfJ-R23Pq-84" target="_b5BClZJfC4NfJ-R23Pq-28">
          <mxGeometry relative="1" as="geometry" />
        </mxCell>
        <mxCell id="_b5BClZJfC4NfJ-R23Pq-84" value="tanggal_dibuat" style="ellipse;whiteSpace=wrap;html=1;" vertex="1" parent="1">
          <mxGeometry x="877.5" y="480" width="95" height="30" as="geometry" />
        </mxCell>
        <mxCell id="_b5BClZJfC4NfJ-R23Pq-89" style="edgeStyle=none;rounded=0;orthogonalLoop=1;jettySize=auto;html=1;exitX=0;exitY=1;exitDx=0;exitDy=0;entryX=0.5;entryY=0;entryDx=0;entryDy=0;startArrow=none;startFill=0;endArrow=none;endFill=0;" edge="1" parent="1" source="_b5BClZJfC4NfJ-R23Pq-85" target="_b5BClZJfC4NfJ-R23Pq-28">
          <mxGeometry relative="1" as="geometry" />
        </mxCell>
        <mxCell id="_b5BClZJfC4NfJ-R23Pq-85" value="tanggal_diperbaharui" style="ellipse;whiteSpace=wrap;html=1;" vertex="1" parent="1">
          <mxGeometry x="930" y="515" width="125" height="30" as="geometry" />
        </mxCell>
        <mxCell id="_b5BClZJfC4NfJ-R23Pq-101" style="edgeStyle=none;rounded=0;orthogonalLoop=1;jettySize=auto;html=1;exitX=1;exitY=0;exitDx=0;exitDy=0;entryX=0.36;entryY=1.069;entryDx=0;entryDy=0;entryPerimeter=0;startArrow=none;startFill=0;endArrow=none;endFill=0;" edge="1" parent="1" source="_b5BClZJfC4NfJ-R23Pq-94" target="_b5BClZJfC4NfJ-R23Pq-29">
          <mxGeometry relative="1" as="geometry" />
        </mxCell>
        <mxCell id="_b5BClZJfC4NfJ-R23Pq-94" value="isi" style="ellipse;whiteSpace=wrap;html=1;" vertex="1" parent="1">
          <mxGeometry x="480" y="945" width="65" height="30" as="geometry" />
        </mxCell>
        <mxCell id="_b5BClZJfC4NfJ-R23Pq-100" style="edgeStyle=none;rounded=0;orthogonalLoop=1;jettySize=auto;html=1;exitX=1;exitY=0;exitDx=0;exitDy=0;entryX=0.25;entryY=1;entryDx=0;entryDy=0;startArrow=none;startFill=0;endArrow=none;endFill=0;" edge="1" parent="1" source="_b5BClZJfC4NfJ-R23Pq-95" target="_b5BClZJfC4NfJ-R23Pq-29">
          <mxGeometry relative="1" as="geometry" />
        </mxCell>
        <mxCell id="_b5BClZJfC4NfJ-R23Pq-95" value="jawaban_id" style="ellipse;whiteSpace=wrap;html=1;" vertex="1" parent="1">
          <mxGeometry x="425" y="900" width="95" height="30" as="geometry" />
        </mxCell>
        <mxCell id="_b5BClZJfC4NfJ-R23Pq-102" style="edgeStyle=none;rounded=0;orthogonalLoop=1;jettySize=auto;html=1;exitX=0.5;exitY=0;exitDx=0;exitDy=0;entryX=0.5;entryY=1;entryDx=0;entryDy=0;startArrow=none;startFill=0;endArrow=none;endFill=0;" edge="1" parent="1" source="_b5BClZJfC4NfJ-R23Pq-98" target="_b5BClZJfC4NfJ-R23Pq-29">
          <mxGeometry relative="1" as="geometry" />
        </mxCell>
        <mxCell id="_b5BClZJfC4NfJ-R23Pq-98" value="tanggal_dibuat" style="ellipse;whiteSpace=wrap;html=1;" vertex="1" parent="1">
          <mxGeometry x="562.5" y="945" width="95" height="30" as="geometry" />
        </mxCell>
        <mxCell id="_b5BClZJfC4NfJ-R23Pq-103" style="edgeStyle=none;rounded=0;orthogonalLoop=1;jettySize=auto;html=1;exitX=0;exitY=0;exitDx=0;exitDy=0;entryX=0.75;entryY=1;entryDx=0;entryDy=0;startArrow=none;startFill=0;endArrow=none;endFill=0;" edge="1" parent="1" source="_b5BClZJfC4NfJ-R23Pq-99" target="_b5BClZJfC4NfJ-R23Pq-29">
          <mxGeometry relative="1" as="geometry" />
        </mxCell>
        <mxCell id="_b5BClZJfC4NfJ-R23Pq-99" value="tanggal_diperbaharui" style="ellipse;whiteSpace=wrap;html=1;" vertex="1" parent="1">
          <mxGeometry x="635" y="900" width="125" height="30" as="geometry" />
        </mxCell>
        <mxCell id="_b5BClZJfC4NfJ-R23Pq-106" style="edgeStyle=none;rounded=0;orthogonalLoop=1;jettySize=auto;html=1;exitX=0.5;exitY=1;exitDx=0;exitDy=0;entryX=0.5;entryY=0;entryDx=0;entryDy=0;startArrow=none;startFill=0;endArrow=ERzeroToMany;endFill=1;" edge="1" parent="1" source="_b5BClZJfC4NfJ-R23Pq-104" target="_b5BClZJfC4NfJ-R23Pq-29">
          <mxGeometry relative="1" as="geometry">
            <Array as="points">
              <mxPoint x="473" y="820" />
              <mxPoint x="580" y="820" />
            </Array>
          </mxGeometry>
        </mxCell>
        <mxCell id="_b5BClZJfC4NfJ-R23Pq-104" value="Memberi" style="rhombus;whiteSpace=wrap;html=1;" vertex="1" parent="1">
          <mxGeometry x="432.5" y="740" width="80" height="50" as="geometry" />
        </mxCell>
        <mxCell id="_b5BClZJfC4NfJ-R23Pq-108" style="edgeStyle=none;rounded=0;orthogonalLoop=1;jettySize=auto;html=1;exitX=0;exitY=0.5;exitDx=0;exitDy=0;startArrow=ERone;startFill=0;endArrow=ERzeroToMany;endFill=1;" edge="1" parent="1" source="_b5BClZJfC4NfJ-R23Pq-29" target="_b5BClZJfC4NfJ-R23Pq-29">
          <mxGeometry relative="1" as="geometry" />
        </mxCell>
        <mxCell id="_b5BClZJfC4NfJ-R23Pq-109" style="edgeStyle=none;rounded=0;orthogonalLoop=1;jettySize=auto;html=1;exitX=0;exitY=1;exitDx=0;exitDy=0;startArrow=ERone;startFill=0;endArrow=ERzeroToMany;endFill=1;" edge="1" parent="1" source="_b5BClZJfC4NfJ-R23Pq-60" target="_b5BClZJfC4NfJ-R23Pq-60">
          <mxGeometry relative="1" as="geometry" />
        </mxCell>
        <mxCell id="_b5BClZJfC4NfJ-R23Pq-124" style="edgeStyle=none;rounded=0;orthogonalLoop=1;jettySize=auto;html=1;exitX=0;exitY=0.5;exitDx=0;exitDy=0;entryX=1;entryY=0.25;entryDx=0;entryDy=0;startArrow=none;startFill=0;endArrow=none;endFill=0;" edge="1" parent="1" source="_b5BClZJfC4NfJ-R23Pq-114" target="_b5BClZJfC4NfJ-R23Pq-30">
          <mxGeometry relative="1" as="geometry" />
        </mxCell>
        <mxCell id="_b5BClZJfC4NfJ-R23Pq-114" value="komentar_id" style="ellipse;whiteSpace=wrap;html=1;" vertex="1" parent="1">
          <mxGeometry x="1197.5" y="645" width="95" height="30" as="geometry" />
        </mxCell>
        <mxCell id="_b5BClZJfC4NfJ-R23Pq-122" style="edgeStyle=none;rounded=0;orthogonalLoop=1;jettySize=auto;html=1;exitX=0;exitY=1;exitDx=0;exitDy=0;entryX=1;entryY=0;entryDx=0;entryDy=0;startArrow=none;startFill=0;endArrow=none;endFill=0;" edge="1" parent="1" source="_b5BClZJfC4NfJ-R23Pq-116" target="_b5BClZJfC4NfJ-R23Pq-30">
          <mxGeometry relative="1" as="geometry" />
        </mxCell>
        <mxCell id="_b5BClZJfC4NfJ-R23Pq-116" value="isi" style="ellipse;whiteSpace=wrap;html=1;" vertex="1" parent="1">
          <mxGeometry x="1170" y="610" width="50" height="30" as="geometry" />
        </mxCell>
        <mxCell id="_b5BClZJfC4NfJ-R23Pq-125" style="edgeStyle=none;rounded=0;orthogonalLoop=1;jettySize=auto;html=1;exitX=0;exitY=0.5;exitDx=0;exitDy=0;entryX=1;entryY=0.5;entryDx=0;entryDy=0;startArrow=none;startFill=0;endArrow=none;endFill=0;" edge="1" parent="1" source="_b5BClZJfC4NfJ-R23Pq-118" target="_b5BClZJfC4NfJ-R23Pq-30">
          <mxGeometry relative="1" as="geometry" />
        </mxCell>
        <mxCell id="_b5BClZJfC4NfJ-R23Pq-118" value="tanggal_dibuat" style="ellipse;whiteSpace=wrap;html=1;" vertex="1" parent="1">
          <mxGeometry x="1197.5" y="690" width="95" height="30" as="geometry" />
        </mxCell>
        <mxCell id="_b5BClZJfC4NfJ-R23Pq-126" style="edgeStyle=none;rounded=0;orthogonalLoop=1;jettySize=auto;html=1;exitX=0;exitY=0.5;exitDx=0;exitDy=0;entryX=1;entryY=0.5;entryDx=0;entryDy=0;startArrow=none;startFill=0;endArrow=none;endFill=0;" edge="1" parent="1" source="_b5BClZJfC4NfJ-R23Pq-121" target="_b5BClZJfC4NfJ-R23Pq-30">
          <mxGeometry relative="1" as="geometry" />
        </mxCell>
        <mxCell id="_b5BClZJfC4NfJ-R23Pq-121" value="pemberi_komentar_id" style="ellipse;whiteSpace=wrap;html=1;" vertex="1" parent="1">
          <mxGeometry x="1160" y="735" width="150" height="30" as="geometry" />
        </mxCell>
        <mxCell id="_b5BClZJfC4NfJ-R23Pq-129" style="edgeStyle=none;rounded=0;orthogonalLoop=1;jettySize=auto;html=1;exitX=1;exitY=0.5;exitDx=0;exitDy=0;entryX=0.25;entryY=1;entryDx=0;entryDy=0;startArrow=none;startFill=0;endArrow=none;endFill=0;" edge="1" parent="1" source="_b5BClZJfC4NfJ-R23Pq-127" target="_b5BClZJfC4NfJ-R23Pq-28">
          <mxGeometry relative="1" as="geometry">
            <Array as="points">
              <mxPoint x="898" y="660" />
            </Array>
          </mxGeometry>
        </mxCell>
        <mxCell id="_b5BClZJfC4NfJ-R23Pq-127" value="Memberi Like/&lt;br&gt;Dislike" style="rhombus;whiteSpace=wrap;html=1;" vertex="1" parent="1">
          <mxGeometry x="690" y="635" width="140" height="50" as="geometry" />
        </mxCell>
        <mxCell id="_b5BClZJfC4NfJ-R23Pq-132" style="edgeStyle=none;rounded=0;orthogonalLoop=1;jettySize=auto;html=1;exitX=0.5;exitY=1;exitDx=0;exitDy=0;startArrow=none;startFill=0;endArrow=none;endFill=0;" edge="1" parent="1" source="_b5BClZJfC4NfJ-R23Pq-130">
          <mxGeometry relative="1" as="geometry">
            <mxPoint x="590" y="840" as="targetPoint" />
            <Array as="points">
              <mxPoint x="640" y="800" />
              <mxPoint x="590" y="800" />
            </Array>
          </mxGeometry>
        </mxCell>
        <mxCell id="_b5BClZJfC4NfJ-R23Pq-130" value="Memberi Like/&lt;br&gt;Dislike" style="rhombus;whiteSpace=wrap;html=1;" vertex="1" parent="1">
          <mxGeometry x="570" y="740" width="140" height="50" as="geometry" />
        </mxCell>
      </root>
    </mxGraphModel>
  </diagram>
</mxfile>
